HIERARCHY
ROOT Hips
{
	OFFSET 0.000000 0.000000 0.000000
	CHANNELS 6 Xposition Yposition Zposition Xrotation Yrotation Zrotation
	JOINT LeftUpLeg_virtual
	{
		OFFSET 0.000000 0.000000 0.000000
		CHANNELS 3 Xrotation Yrotation Zrotation
		JOINT LeftUpLeg
		{
			OFFSET 11.394100 -6.187798 -0.413800
			CHANNELS 3 Xrotation Yrotation Zrotation
			JOINT LeftLeg
			{
				OFFSET 0.430247 -32.302673 3.732800
				CHANNELS 3 Xrotation Yrotation Zrotation
				JOINT LeftFoot
				{
					OFFSET -0.430247 -48.264931 -6.423300
					CHANNELS 3 Xrotation Yrotation Zrotation
					JOINT LeftToeBase
					{
						OFFSET 4.230900 -16.068199 23.438400
						CHANNELS 3 Xrotation Yrotation Zrotation
						JOINT LeftToe_End
						{
							OFFSET 4.510700 0.695400 19.974600
							CHANNELS 3 Xrotation Yrotation Zrotation
							End Site
							{
								OFFSET 0 0 0
							}
						}
					}
				}
			}
		}
	}
	JOINT RightUpLeg_virtual
	{
		OFFSET 0.000000 0.000000 0.000000
		CHANNELS 3 Xrotation Yrotation Zrotation
		JOINT RightUpLeg
		{
			OFFSET -11.333700 -6.187798 -0.413800
			CHANNELS 3 Xrotation Yrotation Zrotation
			JOINT RightLeg
			{
				OFFSET -0.430392 -32.302628 3.733000
				CHANNELS 3 Xrotation Yrotation Zrotation
				JOINT RightFoot
				{
					OFFSET 0.430392 -48.264973 -6.423500
					CHANNELS 3 Xrotation Yrotation Zrotation
					JOINT RightToeBase
					{
						OFFSET -4.230900 -16.068199 23.438400
						CHANNELS 3 Xrotation Yrotation Zrotation
						JOINT RightToe_End
						{
							OFFSET -4.510700 0.695400 19.974600
							CHANNELS 3 Xrotation Yrotation Zrotation
							End Site
							{
								OFFSET 0 0 0
							}
						}
					}
				}
			}
		}
	}
	JOINT Spine_virtual
	{
		OFFSET 0.000000 0.000000 0.000000
		CHANNELS 3 Xrotation Yrotation Zrotation
		JOINT Spine
		{
			OFFSET -0.002400 12.777504 0.315300
			CHANNELS 3 Xrotation Yrotation Zrotation
			JOINT Spine1
			{
				OFFSET -0.002067 5.816869 0.032633
				CHANNELS 3 Xrotation Yrotation Zrotation
				JOINT Spine1_split
				{
					OFFSET -0.002067 5.816869 0.032633
					CHANNELS 3 Xrotation Yrotation Zrotation
					JOINT Spine2
					{
						OFFSET -0.002067 5.816869 0.032633
						CHANNELS 3 Xrotation Yrotation Zrotation
						JOINT Neck_virtual
						{
							OFFSET 0.000000 0.000000 0.000000
							CHANNELS 3 Xrotation Yrotation Zrotation
							JOINT Neck
							{
								OFFSET -0.003700 21.199493 -0.826900
								CHANNELS 3 Xrotation Yrotation Zrotation
								JOINT Head
								{
									OFFSET 0.000000 20.442200 4.834800
									CHANNELS 3 Xrotation Yrotation Zrotation
									JOINT HeadTop_End
									{
										OFFSET 0.000000 34.668396 4.968400
										CHANNELS 3 Xrotation Yrotation Zrotation
										End Site
										{
											OFFSET 0 0 0
										}
									}
								}
							}
						}
						JOINT LeftShoulder_virtual
						{
							OFFSET 0.000000 0.000000 0.000000
							CHANNELS 3 Xrotation Yrotation Zrotation
							JOINT LeftShoulder
							{
								OFFSET 3.288150 8.794197 -1.372250
								CHANNELS 3 Xrotation Yrotation Zrotation
								JOINT LeftShoulder_split
								{
									OFFSET 3.288150 8.794197 -1.372250
									CHANNELS 3 Xrotation Yrotation Zrotation
									JOINT LeftArm
									{
										OFFSET 11.953299 -2.279007 -0.146200
										CHANNELS 3 Xrotation Yrotation Zrotation
										JOINT LeftForeArm
										{
											OFFSET 18.448900 0.000000 0.000000
											CHANNELS 3 Xrotation Yrotation Zrotation
											JOINT LeftHand
											{
												OFFSET 29.527798 0.000000 0.000000
												CHANNELS 3 Xrotation Yrotation Zrotation
												End Site
												{
													OFFSET 0 0 0
												}
											}
										}
									}
								}
							}
						}
						JOINT RightShoulder_virtual
						{
							OFFSET 0.000000 0.000000 0.000000
							CHANNELS 3 Xrotation Yrotation Zrotation
							JOINT RightShoulder
							{
								OFFSET -3.249400 8.794197 -1.372250
								CHANNELS 3 Xrotation Yrotation Zrotation
								JOINT RightShoulder_split
								{
									OFFSET -3.249400 8.794197 -1.372250
									CHANNELS 3 Xrotation Yrotation Zrotation
									JOINT RightArm
									{
										OFFSET -11.953299 -2.279007 -0.146200
										CHANNELS 3 Xrotation Yrotation Zrotation
										JOINT RightForeArm
										{
											OFFSET -18.448900 0.000000 0.000000
											CHANNELS 3 Xrotation Yrotation Zrotation
											JOINT RightHand
											{
												OFFSET -29.527802 0.000000 0.000000
												CHANNELS 3 Xrotation Yrotation Zrotation
												End Site
												{
													OFFSET 0 0 0
												}
											}
										}
									}
								}
							}
						}
					}
				}
			}
		}
	}
}
MOTION
Frames: 6
Frame Time: 0.03333333
-0.707200 82.575920 2.587070 0.000000 0.000000 0.000000 6.547264 -50.689286 7.481753 -71.111572 22.920979 35.700262 50.469285 -15.797889 6.188104 7.338773 2.222684 -7.198201 -1.224343 -8.598017 1.938275 0.000000 0.000000 0.000000 3.622783 -50.201569 7.038826 -34.246121 1.740000 -22.555487 47.292944 2.991594 -10.603494 -20.714306 -1.353835 23.903704 3.325940 7.512386 3.124802 0.000000 0.000000 0.000000 9.237393 -50.335755 9.135159 13.047193 2.304952 -3.181766 4.537847 6.642192 -3.764245 0.450165 -2.643395 1.336145 0.000000 0.000000 0.000000 -4.122399 6.179120 -2.085672 0.788892 10.589250 -1.163935 -4.615734 24.659922 -1.919668 0.000000 0.000000 0.000000 -5.342232 6.156900 -2.395679 -1.425597 -10.510731 -4.619519 4.201342 -0.802219 -0.156386 -14.354336 2.081502 -44.348872 -23.144555 -27.607509 -15.599811 0.000000 0.000000 0.000000 -5.034636 5.842341 -2.260338 -2.607207 13.649674 0.999438 -2.282423 -4.656967 2.729435 0.109031 -14.750909 58.535322 -10.159789 44.497552 18.322964 0.000000 0.000000 0.000000 
-0.717586 82.478287 2.386219 0.000000 0.000000 0.000000 6.806644 -51.185923 7.557145 -70.917403 22.958827 35.943167 50.388870 -15.822697 6.198395 6.282953 2.055423 -6.670299 -1.251825 -8.537946 1.952174 0.000000 0.000000 0.000000 3.850809 -50.006175 6.972324 -34.364126 1.875008 -22.343429 47.235153 3.069767 -10.590163 -20.763403 -1.227799 24.251789 3.160298 7.653063 2.975321 0.000000 0.000000 0.000000 9.169742 -50.618228 9.033630 13.080413 2.330504 -3.377006 4.620707 6.643382 -3.843743 0.534677 -2.489419 1.359985 0.000000 0.000000 0.000000 -4.154939 6.196267 -2.127363 0.482825 10.524220 -1.195283 -4.715876 24.693133 -1.882127 0.000000 0.000000 0.000000 -5.187576 6.188358 -2.451307 -1.419281 -10.511605 -4.513251 3.943296 -0.728176 0.041773 -14.277829 2.112796 -43.946516 -23.084129 -27.384436 -15.591041 0.000000 0.000000 0.000000 -5.022106 5.840455 -2.388524 -2.521990 14.325115 1.180597 -1.662224 -4.920405 1.974328 0.450935 -15.057528 56.329482 -7.315737 40.818447 16.794431 0.000000 0.000000 0.000000 
-0.713643 82.284088 2.006485 0.000000 0.000000 0.000000 7.314481 -51.881557 7.779500 -70.234542 23.143754 36.229120 49.873922 -15.782008 6.149833 5.026198 2.051143 -6.402604 -1.383649 -8.381717 2.045317 0.000000 0.000000 0.000000 4.053806 -50.195074 6.942487 -35.055471 1.939049 -22.063302 47.448699 2.768892 -10.584908 -20.375018 -0.878809 24.439593 2.983583 7.584144 3.116018 0.000000 0.000000 0.000000 9.227027 -50.861646 8.978408 13.109698 2.436107 -3.570457 4.776174 6.654635 -3.970028 0.376271 -2.426843 1.368423 0.000000 0.000000 0.000000 -4.094092 6.211464 -2.242470 0.108686 10.446429 -1.256510 -4.720295 24.652521 -1.928455 0.000000 0.000000 0.000000 -4.945890 6.194903 -2.611732 -1.394143 -10.290764 -4.337924 3.682717 -0.669740 0.118139 -14.680809 2.195863 -43.306978 -22.817621 -27.182304 -15.411403 0.000000 0.000000 0.000000 -4.952828 5.860741 -2.614794 -2.581079 15.046541 1.422636 -1.404512 -4.784082 1.264126 1.383579 -15.771938 54.440057 -1.417688 37.306411 13.406910 0.000000 0.000000 0.000000 
-0.765187 82.078308 1.484875 0.000000 0.000000 0.000000 7.881358 -52.432186 8.073953 -69.295978 23.418154 36.496675 48.920485 -15.779608 6.071035 4.352491 2.039324 -6.557596 -1.631106 -8.146579 2.148767 0.000000 0.000000 0.000000 4.319292 -50.474582 7.069470 -36.112962 1.987081 -21.838466 48.024163 2.034913 -10.616070 -19.880500 -0.450922 24.517181 2.840077 7.276928 3.436768 0.000000 0.000000 0.000000 9.333397 -50.842788 9.012815 13.099316 2.589973 -3.714441 4.962935 6.651806 -4.144163 0.178410 -2.634969 1.290894 0.000000 0.000000 0.000000 -3.929609 6.193186 -2.431850 -0.258502 10.358380 -1.355876 -4.599145 24.507596 -2.065557 0.000000 0.000000 0.000000 -4.685315 6.162534 -2.862956 -1.354614 -9.843839 -4.064115 3.440781 -0.856079 0.142524 -15.550363 2.196018 -42.636650 -22.362056 -27.022537 -15.118706 0.000000 0.000000 0.000000 -4.837473 5.858264 -2.893161 -2.735548 15.757598 1.802122 -1.244705 -4.739874 0.769193 2.914426 -16.097417 53.096443 6.010925 34.889962 9.264617 0.000000 0.000000 0.000000 
-0.908222 82.017929 0.935810 0.000000 0.000000 0.000000 8.186240 -52.410719 8.288612 -68.328318 23.748464 36.671788 47.552334 -15.841454 5.922846 4.878729 1.744852 -7.114076 -2.010557 -7.872519 2.183399 0.000000 0.000000 0.000000 4.557051 -50.422355 7.299949 -37.058008 1.960670 -21.733160 48.786402 0.850770 -10.730794 -19.377038 -0.138650 24.735557 2.304479 6.753595 3.656654 0.000000 0.000000 0.000000 9.322383 -50.280096 9.075265 13.036404 2.717618 -3.816126 5.154772 6.622726 -4.355742 -0.051987 -3.130413 1.122488 0.000000 0.000000 0.000000 -3.724430 6.109382 -2.683233 -0.551039 10.228553 -1.519102 -4.377126 24.203877 -2.297280 0.000000 0.000000 0.000000 -4.460928 6.088924 -3.177951 -1.294320 -9.240707 -3.702214 3.223492 -1.201959 0.365660 -16.713560 1.946911 -42.202328 -21.774773 -27.055170 -14.801860 0.000000 0.000000 0.000000 -4.695393 5.801981 -3.171389 -2.856979 16.464658 2.386265 -1.334595 -4.918424 0.649135 4.963200 -15.453180 52.301163 13.902959 33.636967 4.842393 0.000000 0.000000 0.000000 
-1.130333 82.277435 0.390873 0.000000 0.000000 0.000000 8.127514 -51.502546 8.355147 -67.575645 24.070143 36.659336 45.711143 -15.896772 5.651955 6.668594 0.958034 -7.800376 -2.383473 -7.586867 2.154679 0.000000 0.000000 0.000000 4.848692 -49.529260 7.645343 -37.282106 1.825374 -21.730745 49.464343 -0.721113 -10.932072 -19.070867 -0.022603 25.199647 1.273790 6.098907 3.553417 0.000000 0.000000 0.000000 9.160893 -48.906593 9.130593 12.960626 2.774353 -3.869884 5.341199 6.552745 -4.578328 -0.245173 -3.419023 1.080733 0.000000 0.000000 0.000000 -3.530480 5.971689 -2.955929 -0.802499 10.025346 -1.757118 -4.101004 23.635304 -2.627051 0.000000 0.000000 0.000000 -4.292756 5.954515 -3.503950 -1.211289 -8.590372 -3.268500 3.033624 -1.512471 0.901328 -17.970655 1.374614 -42.209210 -21.110166 -27.401466 -14.550960 0.000000 0.000000 0.000000 -4.570402 5.703537 -3.417622 -2.853253 17.158120 3.177518 -1.282011 -4.827730 0.478686 7.325699 -13.475595 51.538818 21.248017 32.817679 0.632433 0.000000 0.000000 0.000000 
